PathFileType	4	(X/Y/Z)	S01_0015_Gait_markers.trc
DataRate	CameraRate	NumFrames	NumMarkers	Units	OrigDataRate	OrigDataStartFrame	OrigNumFrames
250.000000	250.000000	4	54	mm	250.000000	223	358
Frame#	Time	HEAD_ANT			R_HEAD			L_HEAD			C7			R_BACK			L_BACK			STERNUM			R_ACROMION			R_HUM_PROX			R_HUM_ANT			R_HUM_POST			R_ELBOW_LAT			R_ELBOW_MED			R_FOREARM			R_WIRST_LAT			R_WRITS_MED			R_HAND			L_ACROMION			L_HUM_PROX			L_HUM_ANT			L_HUM_POST			L_ELBOW_LAT			L_ELBOW_MED			L_FOREARM			L_WRIST_LAT			L_WIRST_MED			L_HAND			R_ILIAC			SACRUM			L_ILIAC			R_GTROCH			R_THIGH__1			R_THIGH_2			R_THIGH_3			R_THIGH_4			R_SHANK_1			R_SHANK_2			R_SHANK_3			R_SHANK_4			R_HEEL			R_FOOT_LAT			R_FOOT_MED			L_GTROCH			L_THIGH_1			L_THIGH_2			L_THIGH_3			L_THIGH_4			L_SHANK_1			L_SHANK_2			L_SHANK_3			L_SHANK_4			L_HEEL			L_FOOT_LAT			L_FOOT_MED			
		X1	Y1	Z1	X2	Y2	Z2	X3	Y3	Z3	X4	Y4	Z4	X5	Y5	Z5	X6	Y6	Z6	X7	Y7	Z7	X8	Y8	Z8	X9	Y9	Z9	X10	Y10	Z10	X11	Y11	Z11	X12	Y12	Z12	X13	Y13	Z13	X14	Y14	Z14	X15	Y15	Z15	X16	Y16	Z16	X17	Y17	Z17	X18	Y18	Z18	X19	Y19	Z19	X20	Y20	Z20	X21	Y21	Z21	X22	Y22	Z22	X23	Y23	Z23	X24	Y24	Z24	X25	Y25	Z25	X26	Y26	Z26	X27	Y27	Z27	X28	Y28	Z28	X29	Y29	Z29	X30	Y30	Z30	X31	Y31	Z31	X32	Y32	Z32	X33	Y33	Z33	X34	Y34	Z34	X35	Y35	Z35	X36	Y36	Z36	X37	Y37	Z37	X38	Y38	Z38	X39	Y39	Z39	X40	Y40	Z40	X41	Y41	Z41	X42	Y42	Z42	X43	Y43	Z43	X44	Y44	Z44	X45	Y45	Z45	X46	Y46	Z46	X47	Y47	Z47	X48	Y48	Z48	X49	Y49	Z49	X50	Y50	Z50	X51	Y51	Z51	X52	Y52	Z52	X53	Y53	Z53	X54	Y54	Z54	

224	0.892	1318.288330078125	1737.790161132812	-363.210784912109	1262.473022460938	1691.84765625	-280.5495300292965	1260.972534179688	1681.61962890625	-428.1353759765621	1131.860473632812	1513.2216796875	-341.4896545410153	1063.904663085938	1318.625732421875	-265.7277832031247	1063.756958007812	1316.855102539062	-406.0424499511716	1313.4951171875	1354.357421875	-339.4440917968747	1217.827392578125	1467.62451171875	-169.1063232421872	1191.537475585938	1306.484741210938	-75.95949554443331	1253.762939453125	1221.41357421875	-80.82603454589817	1133.977294921875	1221.77783203125	-58.79233551025364	1179.850219726562	1116.582641601562	-59.27132797241186	1151.537475585938	1112.939331054688	-137.3573913574216	1281.64111328125	933.2496337890625	-62.28443908691386	1317.423706054688	866.926513671875	-103.1214294433592	1251.485595703125	844.6106567382812	-59.95383834838849	1322.195678710938	777.9496459960938	-49.62773513793928	1210.147827148438	1465.4248046875	-509.1758422851559	1179.591918945312	1297.982788085938	-600.0254516601559	1237.61962890625	1214.237060546875	-601.6588134765623	1115.564697265625	1223.43994140625	-621.7272949218748	1168.020385742188	1115.103881835938	-629.5072021484373	1114.31298828125	1113.866943359375	-571.8032226562498	1258.764282226562	933.2082519531251	-623.0268554687498	1289.990844726562	870.0765380859376	-574.1209716796873	1238.117431640625	852.1392822265626	-632.5831298828123	1309.777954101562	789.4355468750001	-623.7040405273435	1204.372924804688	1056.211791992188	-163.7418823242185	1079.925170898438	1037.969848632812	-336.0160522460935	1200.54443359375	1064.371948242188	-510.5630187988279	1151.586791992188	907.377685546875	-154.0280609130857	1196.859619140625	630.0590209960938	-169.4065551757811	1252.69677734375	646.0870361328125	-159.9294586181639	1258.747924804688	541.5298461914062	-184.9346618652343	1194.22021484375	548.827880859375	-184.1808929443358	1072.553588867188	401.9056396484376	-169.3045654296874	1092.697021484375	347.3072509765626	-185.116485595703	1025.58837890625	295.0119934082032	-201.7590332031249	989.519287109375	345.5490417480469	-189.4534454345702	811.2931518554688	255.1482849121094	-269.6485290527343	862.3670654296875	98.56890106201176	-194.0553131103515	907.1447143554688	69.58335113525396	-281.5232849121094	1179.587524414062	956.5188598632814	-519.9490966796873	1329.265014648438	682.1569213867189	-488.8986511230467	1275.606201171875	689.2717895507814	-512.2607421874999	1278.009765625	587.0939331054689	-477.323760986328	1338.837646484375	604.4129028320314	-461.4163208007811	1315.575805664062	324.8023071289064	-453.9819335937499	1258.5048828125	305.0706176757814	-460.5052490234374	1250.387939453125	220.3737792968751	-442.1400451660156	1312.955932617188	224.5875854492188	-426.7344665527343	1193.392211914062	40.99716186523445	-366.4939880371094	1369.4052734375	21.33700561523447	-436.8749084472656	1406.350952148438	25.91435623168953	-328.4822692871094	
225	0.896	1324.130859375	1738.81884765625	-363.424407958984	1268.2373046875	1692.986694335938	-280.7355957031246	1266.781616210938	1682.5869140625	-428.2919921874996	1137.493408203125	1514.328857421875	-341.7309875488278	1069.4873046875	1319.465454101562	-266.6557312011716	1069.321411132812	1317.818725585938	-406.4257202148435	1318.94091796875	1355.3125	-339.4018554687497	1223.051635742188	1468.624633789062	-169.255447387695	1196.6494140625	1307.525756835938	-76.23453521728487	1258.798217773438	1222.380615234375	-81.14837646484348	1139.1484375	1222.88427734375	-58.92741394042942	1184.6484375	1117.619262695312	-59.39342498779272	1156.6591796875	1113.93603515625	-137.6888275146482	1285.588623046875	933.9840698242188	-62.21709060668925	1321.210205078125	867.4140014648438	-104.0708618164061	1255.348510742188	845.4984130859375	-59.67700576782208	1325.468139648438	778.4000244140625	-49.30436706542952	1215.876098632812	1466.403198242188	-509.3140869140622	1185.804565429688	1299.22412109375	-600.3348388671872	1243.7734375	1215.359252929688	-601.6270751953123	1121.912963867188	1224.409912109375	-622.4854736328123	1174.749755859375	1116.025756835938	-629.9293212890623	1120.363037109375	1115.006713867188	-572.5704956054685	1265.640502929688	934.6110229492189	-622.9248046874998	1296.839111328125	871.6141967773439	-573.976379394531	1245.187744140625	853.5324096679689	-632.6823730468748	1317.013549804688	790.9675903320314	-623.636291503906	1209.3525390625	1057.149536132812	-163.8009185791013	1085.207275390625	1039.094970703125	-336.7048034667966	1206.0146484375	1065.50244140625	-510.8282775878904	1157.348388671875	908.4307861328125	-154.6901702880857	1205.905517578125	630.978271484375	-169.3263092041014	1261.941528320312	647.5543212890625	-160.0691986083983	1268.423217773438	542.9141235351562	-185.2349090576171	1203.729858398438	549.1937866210938	-184.8844299316405	1083.068115234375	402.4851379394532	-169.6288909912109	1103.484619140625	348.1297912597657	-185.1905517578124	1036.859497070312	295.1339721679688	-202.1784973144531	1000.243469238281	345.3688964843751	-190.1617736816405	822.350341796875	253.8566589355469	-270.4543457031249	876.4816284179688	98.83342742919926	-192.9985809326172	921.8369140625	69.59278106689459	-280.1909790039062	1184.254516601562	957.2395629882814	-520.112121582031	1332.27978515625	681.9033203125001	-489.0426025390623	1278.434692382812	688.9650878906251	-512.1708984374999	1280.3369140625	587.3348999023439	-477.6761474609374	1341.006103515625	604.1706542968751	-461.788360595703	1316.611083984375	324.2622375488282	-453.6146545410156	1259.928833007812	304.1528320312501	-460.1941223144531	1251.172119140625	220.4016418457032	-442.2995605468749	1313.654296875	224.4826049804688	-426.6956176757812	1193.365356445312	41.10987854003914	-366.425048828125	1369.411010742188	21.30247688293467	-436.9349670410156	1406.3740234375	25.92113876342781	-328.5075378417969	
226	0.9	1329.697387695312	1739.774536132812	-363.5626220703121	1273.826293945312	1693.923217773438	-281.0142822265621	1272.299438476562	1683.485595703125	-428.4545288085934	1143.125366210938	1515.195922851562	-342.0594787597653	1075.03076171875	1320.101684570312	-267.249084472656	1074.822509765625	1318.816040039062	-406.5283203124997	1324.470825195312	1356.28955078125	-339.4035644531247	1228.283325195312	1469.685424804688	-169.3635406494137	1201.496704101562	1308.663940429688	-76.61122894287081	1263.717651367188	1223.365600585938	-81.28242492675754	1144.100830078125	1224.122680664062	-59.07620620727512	1189.337280273438	1118.75634765625	-59.46823883056616	1161.138793945312	1115.16845703125	-137.6491088867185	1289.662109375	934.8746337890625	-62.07893753051737	1324.846557617188	867.97119140625	-103.9749145507811	1259.22314453125	846.3148193359375	-59.484909057617	1328.91455078125	778.9666137695312	-48.97972106933577	1221.608154296875	1467.435668945312	-509.4562377929684	1192.058471679688	1300.262451171875	-600.5416870117184	1249.8095703125	1216.425415039063	-601.4627685546873	1128.231201171875	1225.541870117188	-623.2412109374998	1181.109985351562	1117.388671875	-630.4505615234373	1126.566162109375	1116.029052734375	-573.1205444335935	1272.43017578125	935.9158935546876	-623.0424194335935	1303.705932617188	872.8826904296876	-573.9462890624998	1252.197631835938	854.7175292968751	-632.784484863281	1324.239379882812	792.5425415039064	-623.6322631835935	1214.835815429688	1058.344482421875	-164.0951843261716	1090.723510742188	1040.22314453125	-336.9960327148435	1211.850952148438	1066.578002929688	-510.9868469238279	1163.015747070312	909.4526977539062	-155.3333282470701	1214.8662109375	632.3316650390625	-169.6664886474608	1270.763427734375	649.0541381835938	-160.010299682617	1278.177368164062	544.633544921875	-185.554473876953	1213.46337890625	550.369384765625	-184.7031707763671	1093.56787109375	403.0971984863282	-170.1301269531249	1114.35009765625	348.6945800781251	-185.7000885009765	1048.236450195312	295.4903869628907	-202.2898712158203	1011.277770996094	345.3732299804688	-190.5184478759765	833.5816650390625	252.0641021728516	-271.0306396484374	890.6760864257812	98.80434417724614	-192.3184967041015	936.51025390625	69.49207305908209	-279.3850402832031	1189.587768554688	957.8270263671876	-520.1388549804685	1335.3583984375	681.7838745117189	-489.0891723632811	1281.667602539062	689.4885864257814	-512.7018432617186	1282.586791992188	587.5834350585939	-477.606964111328	1343.33447265625	604.0044555664064	-462.075714111328	1317.612426757812	324.071014404297	-453.6643676757812	1260.439697265625	304.719696044922	-461.3975830078124	1251.959838867188	220.4943389892579	-442.4402160644531	1314.23779296875	224.3797149658204	-426.7415161132812	1193.40087890625	41.14458084106453	-366.2993469238281	1369.3818359375	21.26698303222666	-436.9945983886719	1406.388916015625	25.89605522155769	-328.5626831054688	
227	0.904	1335.415283203125	1740.711059570312	-363.7031860351559	1279.503662109375	1694.964965820312	-281.2247924804684	1278.108154296875	1684.517700195312	-428.7135925292965	1148.956298828125	1516.320434570312	-341.9429931640622	1080.610595703125	1321.072021484375	-268.0851440429685	1080.476684570312	1319.813232421875	-406.8302612304685	1330.001708984375	1357.137084960938	-339.3615417480466	1233.5029296875	1470.8798828125	-169.4200744628903	1206.509033203125	1309.540771484375	-76.6758270263669	1268.58984375	1224.333984375	-81.40735626220676	1149.174682617188	1225.223022460938	-59.25708770751926	1193.797485351562	1119.727294921875	-59.49779510498022	1168.53662109375	1115.411865234375	-138.7323608398435	1293.716552734375	935.60302734375	-61.87395477294901	1328.524169921875	868.6192016601562	-103.6712570190428	1263.163696289062	847.15283203125	-59.19961547851544	1332.173583984375	779.5729370117188	-48.83757019042952	1227.41796875	1468.616577148438	-509.5103759765622	1198.153442382812	1301.2861328125	-600.6763305664059	1256.062744140625	1217.509155273438	-601.6517944335935	1134.4697265625	1226.579345703125	-623.7893066406248	1187.682983398438	1118.210815429688	-630.749084472656	1134.15576171875	1117.265380859375	-573.4842529296873	1279.275756835938	937.3417968750001	-622.9831542968748	1310.356323242188	874.4446411132814	-573.7782592773435	1259.217895507812	855.9785766601564	-632.8210449218748	1331.495971679688	794.0784301757814	-623.4868164062498	1220.27197265625	1059.572143554688	-164.2932281494138	1096.112670898438	1041.402954101562	-337.5452575683591	1219.281127929688	1067.848876953125	-510.7115478515623	1168.798095703125	910.64111328125	-155.6743469238279	1223.711547851562	633.0189819335938	-169.4055175781249	1279.93701171875	650.6185302734375	-160.772994995117	1288.438598632812	546.6358032226562	-186.114776611328	1223.091918945312	551.8690795898438	-184.3119354248046	1103.845336914062	403.6994628906251	-170.7696228027343	1125.50048828125	349.3322143554688	-185.7240295410155	1059.577880859375	295.3946533203126	-202.5830688476562	1022.237854003906	345.4404602050782	-191.0649108886718	844.8386840820312	249.9217681884766	-271.6212768554687	905.2259521484375	98.55140686035161	-191.9465942382812	951.4913940429688	69.32355499267584	-278.4511413574219	1194.70849609375	958.4552612304689	-520.4046630859373	1338.080200195312	681.4744873046876	-489.5133972167967	1284.357177734375	689.6439208984376	-513.0645751953124	1284.549072265625	587.6858520507814	-477.4282226562499	1345.669311523438	603.2668457031251	-462.0496215820311	1318.554565429688	323.9600524902345	-453.5614318847656	1261.351684570312	305.1481323242189	-461.1938781738281	1252.556762695312	220.6066436767579	-442.5663452148437	1314.76171875	224.2191314697266	-426.7107849121093	1193.39599609375	41.16583251953133	-366.2349243164062	1369.371337890625	21.18047332763681	-437.0500183105469	1406.39892578125	25.9081230163575	-328.5871276855469	
